<svg class="mb-6" width="36px" height="36px" viewBox="0 0 36 36" xmlns="http://www.w3.org/2000/svg">
    <g id="logo" transform="translate(-1.000000, -1.000000)">
        <path d="M6.27,31.73 C-0.760584865,24.6994151 -0.760584865,13.3005849 6.27,6.27 C13.3005849,-0.760584865 24.6994151,-0.760584865 31.73,6.27 C38.7605849,13.3005849 38.7605849,24.6994151 31.73,31.73 C24.6994151,38.7605849 13.3005849,38.7605849 6.27,31.73 Z" id="Shape" fill="#58A1E5" fill-rule="nonzero"></path>
        <path d="M18.4,21 L12.8,21 L11,24 L10,24 L10,14 L11,14 L12.8,17 L18.4,17 L16,9 L18,9 L22.8,17 L28,17 C29.1045695,17 30,17.8954305 30,19 C30,20.1045695 29.1045695,21 28,21 L22.8,21 L18,29 L16,29 L18.4,21 Z" id="Shape" fill="#FFFFFF" fill-rule="nonzero"></path>
    </g>
</svg>
